<svg xmlns="http://www.w3.org/2000/svg" viewBox="0 0 31 11" width="31"  height="11" enable-background="new 0 0 31 11"><path fill="#ffffff" d="M0 10.8h3.2v-10.8h-3.2v10.8zm9.4-5.7l-.5-2.8c-.1-.9-.2-1.6-.3-2.3h-4.1v10.8h2.8v-7.2l1.2 7.2h2l1.1-7.3v7.3h2.8v-10.8h-4.1l-.9 5.1zm12.8-4.3c-.2-.3-.7-.5-1.2-.6-.5-.1-1.6-.2-3.1-.2h-2.4v10.8h4c.8 0 1.3 0 1.7-.1.4-.1.7-.2.9-.4.3-.2.4-.4.5-.8.1-.3.2-1 .2-2v-3.7c0-1 0-1.7-.1-2.1 0-.3-.2-.6-.5-.9zm-2.5 6.6c0 .7-.1 1.2-.2 1.3-.1.2-.3.3-.8.3v-7.2c.3 0 .6 0 .7.1.1.1.2.2.2.3 0 .1.1.5.1.9v4.3zm11.3-4.3c0-.2-.1-.4-.3-.6-.2-.2-.4-.4-.7-.5-.3-.1-.7-.2-1.1-.2-.4 0-.7.1-1 .2-.3.1-.6.3-.8.6v-2.6h-3v10.8h2.8l.2-.7c.3.3.5.5.9.6.3.1.6.2 1 .2.5 0 .9-.1 1.3-.4.4-.2.6-.5.7-.8v-6.6zm-3 1.4v3.7c0 .5 0 .9-.1 1-.1.1-.2.2-.4.2s-.3-.1-.4-.2c-.1-.1-.1-.4-.1-.9v-3.8c0-.5 0-.8.1-.9.1-.1.2-.2.4-.2s.3.1.4.2c0 .1.1.4.1.9z"/></svg>