<svg xmlns="http://www.w3.org/2000/svg" viewBox="0 0 15 15" width="15" height="15" enable-background="new 0 0 15 15"><path fill="#ffffff" d="M12.4 0h-9.8c-1.4 0-2.6 1.2-2.6 2.6v9.7c0 1.5 1.2 2.7 2.6 2.7h9.7c1.5 0 2.6-1.2 2.6-2.6v-9.8c.1-1.4-1.1-2.6-2.5-2.6zm-1.7 1.5c0-.2.2-.5.5-.5h1.7c.2 0 .5.2.5.5v1.7c0 .2-.2.5-.5.5h-1.7c-.2 0-.5-.2-.5-.5v-1.7zm-.5 5.9c0 1.5-1.2 2.7-2.7 2.7-1.5 0-2.7-1.2-2.7-2.7 0-1.5 1.2-2.7 2.7-2.7 1.5 0 2.7 1.2 2.7 2.7zm3.2 5c0 .6-.5 1-1 1h-9.8c-.6 0-1-.5-1-1v-7h2c-.2.6-.4 1.3-.4 2 0 2.4 1.9 4.3 4.3 4.3s4.3-1.9 4.3-4.3c0-1-.4-2-1-2.8h2.5v7.8z"/></svg>