<svg xmlns="http://www.w3.org/2000/svg" viewBox="0 0 36 28" width="36" height="28" enable-background="new 0 0 36 28"><path fill="#40496A" d="M15.7 1.1l-.7.7c1.3 1.5 2 3.3 2 5.3s-.7 3.8-2 5.3l.7.7c1.4-1.6 2.3-3.7 2.3-5.9-.1-2.4-.9-4.5-2.3-6.1zm-3.2 1.7l-.6.8c1 .9 1.6 2.1 1.6 3.4 0 1.3-.6 2.6-1.6 3.4l.6.8c1.2-1 2-2.6 2-4.2s-.8-3.1-2-4.2zm-3.6-2.1l-4.7 3.3h-4.2v6h4.2l4.7 3.3.3.2.7.5v-14l-.9.6-.1.1zm0 11.3l-4.1-2.9-.2-.1h-3.6v-4h3.6l.3-.2 4.1-2.9v10.1zM33.5 7l2.1-2.1.4-.4-.7-.7-.3.4-2.1 2.1-2.1-2.1-.3-.4-.7.7.2.3 2.1 2.2-2.1 2.1-.3.4.7.7.3-.4 2.1-2.1 2.1 2.1.3.4.8-.7-.3-.4-2.2-2.1zm-15.5-3v6h4.2l5.6 4v-14l-5.6 4h-4.2zm4.8.8l4.1-2.9v10.1l-4.1-2.9-.2-.1h-3.6v-4h3.5l.3-.2z"/><path fill="#888BA1" d="M15.7 15.1l-.7.7c1.3 1.5 2 3.3 2 5.3s-.7 3.8-2 5.3l.7.7c1.4-1.6 2.3-3.7 2.3-5.9 0-2.4-.8-4.5-2.3-6.1zm-3.1 1.8l-.6.8c1 .9 1.6 2.1 1.6 3.4 0 1.3-.6 2.6-1.6 3.4l.6.8c1.2-1 2-2.6 2-4.2-.1-1.7-.8-3.2-2-4.2zm-3.7-2.1l-4.6 3.2h-4.3v6h4.2l4.7 3.3.3.2.7.5v-13.9l-.9.6-.1.1zm0 11.3l-4.1-2.9-.2-.2h-3.6v-4h3.6l.3-.2 4-2.8v10.1zM33.5 21l2.1-2.1.3-.4-.7-.7-.2.4-2.1 2.1-2.1-2.1-.3-.4-.7.7.3.4 2.1 2.1-2.2 2.2-.3.4.7.7.3-.4 2.1-2.1 2.1 2.1.3.4.7-.7-.3-.4-2.1-2.2zm-15.4-3v6h4.2l5.6 4v-13.9l-5.6 4h-4.2zm4.8.9l4.1-2.9v10.1l-4.1-2.9-.3-.2h-3.5v-4h3.5l.3-.1z"/></svg>