<?xml version="1.0" encoding="UTF-8" standalone="no"?>
<svg width="12px" height="18px" viewBox="0 0 12 18" version="1.1" xmlns="http://www.w3.org/2000/svg" xmlns:xlink="http://www.w3.org/1999/xlink">
    <!-- Generator: Sketch 3.8.3 (29802) - http://www.bohemiancoding.com/sketch -->
    <title>t</title>
    <desc>Created with Sketch.</desc>
    <defs></defs>
    <g id="Page-1" stroke="none" stroke-width="1" fill="none" fill-rule="evenodd">
        <g id="t" fill="#FFFFFF">
            <path d="M8.00141459,16.6874198 C7.95738219,16.688102 7.91419544,16.6884431 7.87083373,16.6884431 C4.03599048,16.6882857 3.01295153,14.0544606 3.01295153,12.4981429 L3.01295153,7.71573178 C3.01295153,7.67626822 2.97740484,7.6442828 2.9335474,7.6442828 L1.07940413,7.6442828 C1.03554669,7.6442828 1,7.61229738 1,7.57283382 L1,5.39423032 C1,5.36510496 1.02026657,5.33912828 1.05044772,5.32855394 C3.03216832,4.63442566 4.13886883,3.25511662 4.42997843,1.12174927 C4.44619168,1.00322741 4.55484382,1 4.55598109,1 L7.03101041,1 C7.07486785,1 7.11041454,1.03198542 7.11041454,1.07142274 L7.11041454,4.90043732 C7.11041454,4.93990087 7.14596122,4.9718863 7.18981867,4.9718863 L10.2707455,4.9718863 C10.314603,4.9718863 10.3501497,5.00387172 10.3501497,5.04333528 L10.3501497,7.57283382 C10.3501497,7.61229738 10.314603,7.6442828 10.2707455,7.6442828 L7.17655062,7.6442828 C7.13269318,7.6442828 7.09714649,7.67626822 7.09714649,7.71573178 L7.09723398,12.2608105 C7.11545931,13.2841603 7.66589351,13.8029329 8.73325647,13.8029329 C9.16334516,13.8029329 9.65595402,13.7129067 10.1056969,13.5583324 C10.1477464,13.5438746 10.1941408,13.5631079 10.2085169,13.6014694 L10.9955889,15.7009096 C11.0055034,15.7273586 10.9985632,15.7566939 10.9761971,15.7760321 C10.3835385,16.2887697 9.16719435,16.6696822 8.00141459,16.6874198 Z" id="Fill-1"></path>
        </g>
    </g>
</svg>