<svg xmlns="http://www.w3.org/2000/svg" viewBox="0 0 20 15" width="20" height="15" enable-background="new 0 0 20 15"><path fill="#ffffff" d="M0 13.2c1.8 1.1 4 1.7 6.3 1.7 7.6 0 11.7-5.7 11.7-10.7v-.5c.8-.6 1.5-1.3 2-2-.7.3-1.5.5-2.4.6.9-.5 1.5-1.2 1.8-2.1-.8.4-1.7.8-2.6.9-.8-.7-1.8-1.1-3-1.1-2.3 0-4.1 1.7-4.1 3.8 0 .3.1.6.1.8-3.4-.1-6.4-1.6-8.5-3.9-.3.5-.5 1.2-.5 1.8 0 1.3.7 2.4 1.9 3.1-.7.1-1.4-.1-1.9-.4 0 1.8 1.4 3.3 3.3 3.7-.4.2-.8.2-1.1.2h-.8c.5 1.5 2.1 2.6 3.9 2.6-1.4 1-3.2 1.6-5.1 1.6-.3 0-.7 0-1-.1"/></svg>